<svg width="58" height="126" viewBox="0 0 58 126" fill="none" xmlns="http://www.w3.org/2000/svg">
<path d="M7.12134 45.751L7.12142 45.7348C7.138 42.5769 7.86656 39.7198 8.91585 37.2013C7.87143 34.6173 7.20523 31.6874 7.22866 28.5833C7.30115 16.4543 17.1271 6.74752 29.254 6.81636C41.3861 6.88522 51.0965 16.7126 51.0277 28.8417C51.0112 31.9074 50.3227 34.8281 49.186 37.4343C50.2705 40.005 50.9451 42.8635 50.9287 45.9811C50.9126 49.0477 50.224 51.9694 49.0871 54.5763C50.1715 57.1471 50.8462 60.0055 50.8298 63.1232L50.8298 63.1258C50.7903 70.0868 47.5382 76.2505 42.4821 80.2273C47.482 84.2629 50.6549 90.4584 50.6154 97.4099C50.5465 109.542 40.7192 119.253 28.5901 119.184C16.458 119.115 6.74751 109.287 6.81636 97.1583C6.85587 90.1973 10.1079 84.0336 15.1641 80.0568C10.1647 76.0217 6.99208 69.8273 7.03072 62.8768L7.12134 45.751ZM7.12134 45.751V45.7672M7.12134 45.751V45.7672M7.12134 45.7672C7.12133 45.7679 7.12134 45.7685 7.12134 45.7691L7.12134 45.7672Z" fill="black" stroke="#F3A0D6" stroke-width="12.368"/>
<path d="M28.6997 100.144C27.1331 100.127 25.8551 98.841 25.8633 97.2661C25.8798 95.6995 27.1661 94.4215 28.7409 94.4297C30.3076 94.438 31.5856 95.7325 31.5773 97.3073C31.5608 98.874 30.2746 100.152 28.6997 100.144Z" fill="#F3A0D6"/>
<path d="M29.0929 31.5773C27.5263 31.5609 26.2483 30.2746 26.2565 28.6997C26.273 27.1331 27.5593 25.8551 29.1341 25.8633C30.7008 25.8798 31.9788 27.1661 31.9705 28.7409C31.9541 30.3076 30.6678 31.5856 29.0929 31.5773Z" fill="#F3A0D6"/>
<path d="M28.994 48.7194C27.4274 48.7029 26.1493 47.4166 26.1576 45.8418C26.1741 44.2752 27.4686 42.9889 29.0352 43.0054C30.6018 43.0219 31.8881 44.3164 31.8716 45.883C31.8551 47.4496 30.5688 48.7276 28.994 48.7194Z" fill="#F3A0D6"/>
<path d="M28.895 65.8615C27.3284 65.845 26.0504 64.5587 26.0586 62.9838C26.0751 61.4172 27.3614 60.1392 28.9363 60.1474C30.5029 60.1639 31.7891 61.4585 31.7727 63.0251C31.7562 64.5917 30.4699 65.8697 28.895 65.8615Z" fill="#F3A0D6"/>
</svg>
