<svg width="103" height="156" viewBox="0 0 103 156" fill="none" xmlns="http://www.w3.org/2000/svg">
<g clip-path="url(#clip0_5899_13204)">
<path d="M58.1406 99.7595V108.6C58.1406 112.2 60.4606 115.26 63.6806 116.38V125.18C63.6806 128.78 66.0006 131.84 69.2206 132.96V136.26C69.2206 139.99 71.7006 143.14 75.1006 144.16C75.8906 146.81 77.9706 148.89 80.6106 149.69C81.6306 153.08 84.7806 155.55 88.5006 155.55H94.0006C98.5506 155.55 102.241 151.86 102.241 147.31V141.81C102.241 138.22 99.9406 135.17 96.7406 134.04V130.73C96.7406 127.14 94.4406 124.09 91.2406 122.96V114.11C91.2406 110.51 88.9206 107.45 85.7006 106.33V49.9895C88.9206 48.8695 91.2406 45.8095 91.2406 42.2095V33.3995C94.4406 32.2695 96.7406 29.2195 96.7406 25.6295V22.3195C99.9406 21.1895 102.241 18.1395 102.241 14.5495V9.00953C102.241 4.45953 98.5506 0.769531 94.0006 0.769531H88.5006C84.7706 0.769531 81.6106 3.25953 80.6006 6.65953C77.9606 7.45953 75.8906 9.54953 75.1006 12.1895C71.7006 13.1995 69.2206 16.3495 69.2206 20.0895V23.3895C66.0006 24.5095 63.6806 27.5695 63.6806 31.1695V39.9395C60.4606 41.0595 58.1406 44.1195 58.1406 47.7195V56.5595C54.9206 57.6795 52.6006 60.7395 52.6006 64.3395V91.9995C52.6006 95.5995 54.9206 98.6595 58.1406 99.7795V99.7595Z" fill="#A23EF1"/>
<path d="M25.0407 89.25H8.4607C3.9107 89.25 0.220703 92.94 0.220703 97.49V114.07C0.220703 118.62 3.9107 122.31 8.4607 122.31H25.0407C29.5907 122.31 33.2807 118.62 33.2807 114.07V97.49C33.2807 92.94 29.5907 89.25 25.0407 89.25ZM16.8007 105.83H16.7007V105.73H16.8007V105.83Z" fill="#A23EF1"/>
<path d="M25.0407 44.9805H8.4607C3.9107 44.9805 0.220703 48.6705 0.220703 53.2205V69.8305C0.220703 74.3805 3.9107 78.0705 8.4607 78.0705H25.0407C29.5907 78.0705 33.2807 74.3805 33.2807 69.8305V53.2205C33.2807 48.6705 29.5907 44.9805 25.0407 44.9805ZM16.8007 61.5905H16.7007V61.4605H16.8007V61.5905Z" fill="#A23EF1"/>
<path d="M87.6909 141.77H93.1909V147.27H87.6909V141.77ZM82.1909 14.5302H87.6909V25.6102H82.1909V42.1902H76.6509V114.08H82.1909V130.69H87.6909V141.77H82.1909V136.23H76.6509V125.15H71.1109V108.57H65.5709V91.9602H60.0309V64.3002H65.5709V47.6902H71.1109V31.1402H76.6509V20.0602H82.1909V14.5202V14.5302ZM87.6909 8.99023H93.1909V14.5302H87.6909V8.99023ZM25.0509 69.8402H8.46094V53.2302H25.0409V69.8402H25.0509ZM25.0509 114.08H8.46094V97.5002H25.0409V114.08H25.0509Z" fill="black"/>
</g>
<defs>
<clipPath id="clip0_5899_13204">
<rect width="102.03" height="154.77" fill="white" transform="translate(0.220703 0.769531)"/>
</clipPath>
</defs>
</svg>
