<svg width="289" height="81" viewBox="0 0 289 81" fill="none" xmlns="http://www.w3.org/2000/svg">
<g clip-path="url(#clip0_5899_13199)">
<path d="M288.15 27.84V20.4C288.15 17.79 287.22 15.05 285.12 12.95C284.24 12.07 283.24 11.4 282.19 10.92C281.7 9.87 281.04 8.88 280.16 7.99C279.31 7.14 278.36 6.49 277.35 6.01C276.86 4.94 276.19 3.93 275.29 3.03C273.19 0.93 270.46 0 267.84 0H243.05C240.43 0 237.7 0.93 235.6 3.03C234.7 3.93 234.03 4.94 233.54 6.01C232.53 6.49 231.58 7.14 230.73 7.99C229.85 8.87 229.18 9.87 228.7 10.92C228.56 10.99 228.41 11.05 228.27 11.12C228.13 11.05 227.98 10.98 227.84 10.92C227.35 9.87 226.69 8.87 225.81 7.99C224.96 7.14 224.01 6.49 223 6.01C222.51 4.94 221.84 3.93 220.94 3.03C218.84 0.93 216.11 0 213.49 0H188.7C186.09 0 183.35 0.93 181.25 3.03C180.35 3.93 179.68 4.94 179.19 6.01C178.18 6.49 177.23 7.14 176.38 7.99C175.5 8.87 174.84 9.87 174.35 10.92C174.21 10.99 174.06 11.05 173.92 11.12C173.78 11.05 173.63 10.98 173.49 10.92C173 9.87 172.34 8.87 171.46 7.99C170.61 7.14 169.66 6.49 168.65 6.01C168.16 4.94 167.49 3.93 166.59 3.03C164.49 0.93 161.76 0 159.14 0H134.35C131.74 0 129 0.93 126.9 3.03C126 3.93 125.33 4.94 124.84 6.01C124.84 6.01 124.82 6.01 124.82 6.02C123.94 2.56 120.81 0 117.08 0H79.9798C77.6598 0 75.2398 0.74 73.2598 2.38C71.8098 0.91 69.7998 0 67.5698 0H57.7398C53.8698 0 50.6398 2.75 49.8998 6.4C49.1598 6.83 48.4498 7.35 47.8098 7.99C46.9298 8.87 46.2598 9.87 45.7798 10.92C44.7298 11.41 43.7298 12.07 42.8498 12.95C40.7498 15.05 39.8198 17.78 39.8198 20.4V21.28C39.1598 21.68 38.5298 22.16 37.9498 22.73C37.3698 22.16 36.7398 21.68 36.0798 21.28V20.4C36.0798 17.79 35.1498 15.05 33.0498 12.95C32.1698 12.07 31.1698 11.4 30.1198 10.92C29.6298 9.87 28.9698 8.87 28.0898 7.99C27.4498 7.35 26.7398 6.83 25.9998 6.4C25.2598 2.75 22.0298 0 18.1598 0H8.23977C3.83977 0 0.259766 3.58 0.259766 8V15.44C0.259766 18.05 1.18977 20.79 3.28977 22.89C4.16977 23.77 5.16977 24.44 6.21977 24.92C6.70977 25.97 7.36977 26.97 8.24977 27.85C8.84977 28.45 9.49977 28.94 10.1798 29.35V30.23C10.1798 32.84 11.1098 35.58 13.2098 37.68C14.0898 38.56 15.0898 39.23 16.1398 39.71C16.6298 40.76 17.2898 41.76 18.1698 42.64C19.0498 43.52 20.0498 44.19 21.0998 44.67C21.5898 45.72 22.2498 46.72 23.1298 47.6C23.6998 48.17 24.3198 48.65 24.9698 49.05V72.29C24.9698 76.71 28.5498 80.29 32.9698 80.29H42.8898C47.3098 80.29 50.8898 76.71 50.8898 72.29V70.72H66.3098C66.6798 71.27 67.0998 71.81 67.5998 72.3C68.4798 73.18 69.4798 73.85 70.5298 74.33C71.0198 75.38 71.6798 76.38 72.5598 77.26C74.6598 79.36 77.3898 80.29 80.0098 80.29H117.11C120.84 80.29 123.97 77.73 124.85 74.27C124.85 74.27 124.87 74.27 124.87 74.28C125.36 75.35 126.03 76.36 126.93 77.26C129.03 79.36 131.76 80.29 134.38 80.29H159.17C161.78 80.29 164.52 79.36 166.62 77.26C167.52 76.36 168.19 75.35 168.68 74.28C169.69 73.8 170.64 73.15 171.49 72.3C171.98 71.81 172.4 71.27 172.77 70.72H175.14C175.5 71.27 175.92 71.81 176.42 72.3C177.27 73.15 178.22 73.8 179.23 74.28C179.72 75.35 180.39 76.36 181.29 77.26C183.39 79.36 186.12 80.29 188.74 80.29H213.53C216.14 80.29 218.88 79.36 220.98 77.26C221.88 76.36 222.55 75.35 223.04 74.28C224.05 73.8 225 73.15 225.85 72.3C226.34 71.81 226.76 71.27 227.13 70.72H229.5C229.86 71.27 230.28 71.81 230.78 72.3C231.63 73.15 232.58 73.8 233.59 74.28C234.08 75.35 234.75 76.36 235.65 77.26C237.75 79.36 240.48 80.29 243.1 80.29H267.89C270.5 80.29 273.24 79.36 275.34 77.26C276.24 76.36 276.91 75.35 277.4 74.28C278.41 73.8 279.36 73.15 280.21 72.3C281.09 71.42 281.76 70.42 282.24 69.37C283.29 68.88 284.29 68.22 285.17 67.34C287.27 65.24 288.2 62.51 288.2 59.89V45.11C288.2 42.5 287.27 39.76 285.17 37.66C284.29 36.78 283.29 36.11 282.24 35.63C282.24 35.61 282.23 35.6 282.22 35.58C285.66 34.68 288.2 31.57 288.2 27.85L288.15 27.84Z" fill="#58C175"/>
<path d="M18.1798 12.9602H20.6598C22.1298 12.9602 23.1398 13.9702 23.1398 15.4402V17.9202H25.6198C27.0898 17.9202 28.0998 18.9302 28.0998 20.4002V27.7502H30.5798C32.0498 27.7502 33.0598 28.7602 33.0598 30.2302V32.7102H42.8898V30.2302C42.8898 28.7602 43.8998 27.7502 45.3698 27.7502H47.8498V20.4002C47.8498 18.9302 48.8598 17.9202 50.3298 17.9202H52.8098V15.4402C52.8098 13.9702 53.8198 12.9602 55.2898 12.9602H57.7698V8.00023H67.5998V15.4402C67.5998 16.9102 66.5898 17.9202 65.1198 17.9202H62.7298V20.4002C62.7298 21.8702 61.7198 22.8802 60.2498 22.8802H57.7698V30.2302C57.7698 31.7002 56.7598 32.7102 55.2898 32.7102H52.8098V35.1902C52.8098 36.6602 51.7998 37.6702 50.3298 37.6702H47.8498V40.1502C47.8498 41.6202 46.8398 42.6302 45.3698 42.6302H42.8898V72.2902H32.9698V42.6302H30.5798C29.1098 42.6302 28.0998 41.6202 28.0998 40.1502V37.6702H25.6198C24.1498 37.6702 23.1398 36.6602 23.1398 35.1902V32.7102H20.6598C19.1898 32.7102 18.1798 31.7002 18.1798 30.2302V22.8802H15.6998C14.2298 22.8802 13.2198 21.8702 13.2198 20.4002V17.9202H10.7398C9.26977 17.9202 8.25977 16.9102 8.25977 15.4402V8.00023H18.1798V12.9602ZM75.0398 12.9602H77.5198V10.4802C77.5198 9.01023 78.5298 8.00023 79.9998 8.00023H117.1V17.9202H82.4798V32.7002H112.14V42.6202H82.4798V62.3602H117.1V72.2802H79.9998C78.5298 72.2802 77.5198 71.2702 77.5198 69.8002V67.3202H75.0398C73.5698 67.3202 72.5598 66.3102 72.5598 64.8402V45.1002C72.5598 43.6302 73.5698 42.6202 75.0398 42.6202H77.5198V32.7002H75.0398C73.5698 32.7002 72.5598 31.6902 72.5598 30.2202V15.4402C72.5598 13.9702 73.5698 12.9602 75.0398 12.9602ZM127.02 32.7002H124.54C123.07 32.7002 122.06 31.6902 122.06 30.2202V20.3902C122.06 18.9202 123.07 17.9102 124.54 17.9102H127.02V15.4302C127.02 13.9602 128.03 12.9502 129.5 12.9502H131.89V10.4702C131.89 9.00023 132.9 7.99023 134.37 7.99023H159.16C160.63 7.99023 161.64 9.00023 161.64 10.4702V12.9502H164.03C165.5 12.9502 166.51 13.9602 166.51 15.4302V17.9102H168.99C170.46 17.9102 171.47 18.9202 171.47 20.3902V27.8302H161.55V22.8702H159.16C157.69 22.8702 156.68 21.8602 156.68 20.3902V17.9102H136.84V20.3902C136.84 21.8602 135.83 22.8702 134.36 22.8702H131.88V27.7402H134.36C135.83 27.7402 136.84 28.7502 136.84 30.2202V32.7002H159.16C160.63 32.7002 161.64 33.7102 161.64 35.1802V37.6602H164.03C165.5 37.6602 166.51 38.6702 166.51 40.1402V42.6202H168.99C170.46 42.6202 171.47 43.6302 171.47 45.1002V59.8802C171.47 61.3502 170.46 62.3602 168.99 62.3602H166.51V64.8402C166.51 66.3102 165.5 67.3202 164.03 67.3202H161.64V69.8002C161.64 71.2702 160.63 72.2802 159.16 72.2802H134.37C132.9 72.2802 131.89 71.2702 131.89 69.8002V67.3202H129.5C128.03 67.3202 127.02 66.3102 127.02 64.8402V62.3602H124.54C123.07 62.3602 122.06 61.3502 122.06 59.8802V52.5302H131.88V57.4002H134.36C135.83 57.4002 136.84 58.4102 136.84 59.8802V62.3602H156.68V59.8802C156.68 58.4102 157.69 57.4002 159.16 57.4002H161.64V47.5702H159.25C157.78 47.5702 156.77 46.5602 156.77 45.0902V42.6102H134.36C132.89 42.6102 131.88 41.6002 131.88 40.1302V37.6502H129.49C128.02 37.6502 127.01 36.6402 127.01 35.1702V32.6902L127.02 32.7002ZM181.37 32.7002H178.89C177.42 32.7002 176.41 31.6902 176.41 30.2202V20.3902C176.41 18.9202 177.42 17.9102 178.89 17.9102H181.37V15.4302C181.37 13.9602 182.38 12.9502 183.85 12.9502H186.24V10.4702C186.24 9.00023 187.25 7.99023 188.72 7.99023H213.51C214.98 7.99023 215.99 9.00023 215.99 10.4702V12.9502H218.38C219.85 12.9502 220.86 13.9602 220.86 15.4302V17.9102H223.34C224.81 17.9102 225.82 18.9202 225.82 20.3902V27.8302H215.9V22.8702H213.51C212.04 22.8702 211.03 21.8602 211.03 20.3902V17.9102H191.19V20.3902C191.19 21.8602 190.18 22.8702 188.71 22.8702H186.23V27.7402H188.71C190.18 27.7402 191.19 28.7502 191.19 30.2202V32.7002H213.51C214.98 32.7002 215.99 33.7102 215.99 35.1802V37.6602H218.38C219.85 37.6602 220.86 38.6702 220.86 40.1402V42.6202H223.34C224.81 42.6202 225.82 43.6302 225.82 45.1002V59.8802C225.82 61.3502 224.81 62.3602 223.34 62.3602H220.86V64.8402C220.86 66.3102 219.85 67.3202 218.38 67.3202H215.99V69.8002C215.99 71.2702 214.98 72.2802 213.51 72.2802H188.72C187.25 72.2802 186.24 71.2702 186.24 69.8002V67.3202H183.85C182.38 67.3202 181.37 66.3102 181.37 64.8402V62.3602H178.89C177.42 62.3602 176.41 61.3502 176.41 59.8802V52.5302H186.23V57.4002H188.71C190.18 57.4002 191.19 58.4102 191.19 59.8802V62.3602H211.03V59.8802C211.03 58.4102 212.04 57.4002 213.51 57.4002H215.99V47.5702H213.6C212.13 47.5702 211.12 46.5602 211.12 45.0902V42.6102H188.71C187.24 42.6102 186.23 41.6002 186.23 40.1302V37.6502H183.84C182.37 37.6502 181.36 36.6402 181.36 35.1702V32.6902L181.37 32.7002ZM235.71 32.7002H233.23C231.76 32.7002 230.75 31.6902 230.75 30.2202V20.3902C230.75 18.9202 231.76 17.9102 233.23 17.9102H235.71V15.4302C235.71 13.9602 236.72 12.9502 238.19 12.9502H240.58V10.4702C240.58 9.00023 241.59 7.99023 243.06 7.99023H267.85C269.32 7.99023 270.33 9.00023 270.33 10.4702V12.9502H272.72C274.19 12.9502 275.2 13.9602 275.2 15.4302V17.9102H277.68C279.15 17.9102 280.16 18.9202 280.16 20.3902V27.8302H270.24V22.8702H267.85C266.38 22.8702 265.37 21.8602 265.37 20.3902V17.9102H245.53V20.3902C245.53 21.8602 244.52 22.8702 243.05 22.8702H240.57V27.7402H243.05C244.52 27.7402 245.53 28.7502 245.53 30.2202V32.7002H267.85C269.32 32.7002 270.33 33.7102 270.33 35.1802V37.6602H272.72C274.19 37.6602 275.2 38.6702 275.2 40.1402V42.6202H277.68C279.15 42.6202 280.16 43.6302 280.16 45.1002V59.8802C280.16 61.3502 279.15 62.3602 277.68 62.3602H275.2V64.8402C275.2 66.3102 274.19 67.3202 272.72 67.3202H270.33V69.8002C270.33 71.2702 269.32 72.2802 267.85 72.2802H243.06C241.59 72.2802 240.58 71.2702 240.58 69.8002V67.3202H238.19C236.72 67.3202 235.71 66.3102 235.71 64.8402V62.3602H233.23C231.76 62.3602 230.75 61.3502 230.75 59.8802V52.5302H240.58V57.4002H243.06C244.53 57.4002 245.54 58.4102 245.54 59.8802V62.3602H265.38V59.8802C265.38 58.4102 266.39 57.4002 267.86 57.4002H270.34V47.5702H267.95C266.48 47.5702 265.47 46.5602 265.47 45.0902V42.6102H243.06C241.59 42.6102 240.58 41.6002 240.58 40.1302V37.6502H238.19C236.72 37.6502 235.71 36.6402 235.71 35.1702V32.6902V32.7002Z" fill="black"/>
</g>
<defs>
<clipPath id="clip0_5899_13199">
<rect width="287.89" height="80.28" fill="white" transform="translate(0.259766)"/>
</clipPath>
</defs>
</svg>
